<?xml version="1.0" standalone="no"?>
<!DOCTYPE svg PUBLIC "-//W3C//DTD SVG 20010904//EN"
 "http://www.w3.org/TR/2001/REC-SVG-20010904/DTD/svg10.dtd">
<svg version="1.0" xmlns="http://www.w3.org/2000/svg"
 width="530.000000pt" height="721.000000pt" viewBox="0 0 530.000000 721.000000"
 preserveAspectRatio="xMidYMid meet">

<g transform="translate(0.000000,721.000000) scale(0.100000,-0.100000)"
fill="#000000" stroke="none">
<path d="M0 5915 c0 -1001 3 -1295 12 -1295 9 0 9 -3 0 -12 -15 -15 -16 -82
-2 -73 6 3 10 -3 10 -14 0 -11 -4 -23 -10 -26 -16 -10 -12 -35 6 -35 14 0 14
-2 0 -16 -15 -14 -16 -71 -15 -512 1 -324 4 -501 11 -509 7 -9 7 -13 -1 -13
-8 0 -11 -35 -10 -112 1 -62 4 -107 6 -100 3 6 9 12 15 12 6 0 4 -8 -5 -18
-19 -21 -23 -82 -5 -82 6 0 9 3 5 6 -8 8 17 56 37 73 20 17 20 31 1 31 -17 0
-20 16 -5 25 5 3 10 22 10 41 0 21 4 33 10 29 6 -3 10 -1 10 4 0 6 -5 11 -10
11 -6 0 -5 8 2 20 19 30 31 24 24 -13 -4 -22 -1 -40 9 -52 19 -26 19 -35 -1
-35 -10 0 -14 -6 -10 -15 3 -8 -2 -29 -11 -47 -32 -64 -34 -69 -28 -77 3 -5
-8 -21 -25 -34 -23 -20 -30 -34 -30 -61 0 -38 8 -43 41 -26 10 6 19 7 19 3 -1
-14 -24 -39 -42 -46 -11 -4 -18 -17 -18 -32 0 -23 2 -24 20 -15 11 6 20 16 20
23 0 7 9 18 19 24 11 7 21 23 23 35 2 14 10 23 21 23 10 0 21 6 26 14 6 10 10
10 16 1 9 -15 -23 -50 -41 -43 -10 3 -14 -2 -14 -20 0 -16 -7 -26 -20 -30 -23
-6 -27 -27 -5 -27 8 0 15 -5 15 -11 0 -5 -9 -9 -19 -7 -10 2 -28 -6 -40 -16
-18 -16 -21 -30 -21 -101 0 -78 1 -82 25 -93 14 -7 39 -12 55 -12 52 0 119
-94 88 -123 -25 -23 -89 -47 -128 -47 l-40 0 0 -331 c0 -369 -6 -344 66 -274
36 36 120 95 135 95 24 0 86 41 112 74 24 32 33 36 72 36 97 0 315 93 350 148
30 48 145 194 163 209 10 7 40 13 68 13 44 0 61 -6 115 -42 35 -24 91 -69 124
-100 32 -32 62 -58 65 -58 3 0 25 16 49 35 70 56 195 80 264 52 34 -15 51 -37
26 -37 -5 0 -7 -4 -4 -10 3 -5 2 -10 -3 -10 -6 0 -24 -13 -42 -30 -39 -36
-143 -106 -172 -116 -18 -5 -30 3 -65 40 -45 49 -54 47 -27 -5 11 -22 12 -34
5 -43 -8 -10 -8 -16 2 -25 10 -7 16 -45 20 -114 3 -56 11 -119 18 -140 9 -27
9 -41 2 -48 -8 -8 -17 0 -32 28 -14 29 -28 42 -48 46 -34 7 -102 72 -154 149
-21 31 -44 60 -51 64 -6 4 6 -19 29 -52 89 -132 113 -176 113 -213 0 -17 -6
-31 -16 -35 -15 -6 -15 -8 0 -25 19 -21 29 -91 13 -91 -6 0 -1 -10 11 -23 20
-21 20 -25 7 -44 -14 -19 -13 -31 1 -110 16 -88 19 -152 8 -162 -10 -11 -43
40 -50 76 -4 21 -10 30 -14 23 -14 -22 -92 119 -130 235 -15 46 -48 113 -60
120 -7 4 -13 -20 -26 -103 -4 -19 -1 -39 7 -48 6 -8 12 -39 13 -68 0 -30 4
-52 8 -50 14 9 26 -34 39 -143 13 -112 13 -112 49 -136 22 -15 34 -30 33 -42
-3 -29 19 -98 27 -85 4 6 12 0 20 -14 10 -20 10 -33 1 -68 -7 -24 -15 -55 -18
-70 -3 -16 -11 -28 -18 -28 -15 0 -39 -49 -36 -74 2 -11 -2 -16 -8 -12 -6 4
-11 0 -11 -8 0 -13 -3 -13 -27 -1 -32 17 -46 11 -38 -16 4 -13 2 -19 -9 -19
-9 0 -16 -7 -16 -15 0 -8 -7 -15 -16 -15 -14 0 -14 -3 -4 -15 11 -13 15 -13
21 -3 7 10 9 9 9 -4 0 -9 -5 -20 -10 -23 -6 -3 -10 -19 -10 -34 0 -34 -9 -44
-26 -30 -10 8 -13 3 -12 -20 1 -17 -6 -39 -15 -49 -10 -10 -17 -31 -17 -45 0
-16 -6 -27 -14 -27 -8 0 -16 -14 -20 -32 -6 -32 -7 -49 -21 -216 -4 -45 -11
-85 -16 -88 -5 -3 -9 -17 -10 -32 0 -15 -3 -21 -6 -13 -3 7 -14 22 -24 32 -11
11 -19 26 -19 34 0 8 -8 15 -18 15 -10 0 -23 5 -30 12 -6 6 -15 9 -18 5 -4 -3
-8 -60 -9 -127 l-4 -120 531 0 530 0 -79 64 c-43 35 -115 102 -160 149 -149
155 -156 205 -44 309 37 35 76 75 85 91 10 15 29 30 42 33 13 3 24 12 24 19 0
7 15 26 33 42 33 28 53 59 75 113 5 14 18 43 28 65 9 22 26 71 35 108 17 64
17 70 1 102 -16 32 -52 49 -52 25 0 -6 -12 -15 -26 -20 -14 -6 -28 -19 -31
-30 -3 -11 -10 -20 -15 -20 -14 0 -59 -56 -91 -114 -16 -28 -43 -76 -61 -106
-18 -30 -37 -64 -42 -76 -15 -35 -128 -173 -142 -173 -15 -1 -20 12 -61 149
-17 58 -31 119 -31 136 0 40 59 159 157 319 101 166 183 319 248 466 37 84 54
114 65 111 11 -4 11 -1 -2 11 -9 10 -22 17 -29 17 -8 0 -5 9 8 22 11 13 28 46
38 73 24 64 64 105 104 105 29 0 61 22 61 41 0 5 5 9 10 9 6 0 3 -11 -6 -25
-21 -31 -12 -42 21 -27 16 8 37 37 60 83 19 39 45 82 59 95 13 14 34 50 46 80
17 42 27 54 40 51 14 -4 17 2 14 37 -2 22 0 60 3 84 5 38 7 40 19 25 11 -15
13 8 13 152 0 172 -12 480 -25 612 l-7 72 -64 37 c-79 47 -170 135 -172 166
-1 13 -3 97 -5 188 -4 175 -23 328 -59 475 -17 71 -22 120 -22 230 0 152 18
250 61 335 36 72 108 140 157 147 23 4 97 60 97 75 0 5 16 8 34 7 19 -2 38 0
42 4 4 4 13 2 21 -4 9 -9 13 -8 13 0 0 6 -7 14 -15 18 -9 3 -22 18 -30 33 -13
25 -12 29 4 44 24 22 54 21 47 -2 -8 -24 7 -107 19 -107 6 -1 28 -4 49 -9 28
-5 36 -10 26 -16 -11 -7 -3 -14 29 -29 37 -16 46 -17 57 -6 8 7 37 16 66 20
29 5 47 10 41 12 -16 6 -17 33 -1 33 9 0 9 3 0 12 -18 18 -14 31 8 25 24 -6
24 -4 5 33 -26 50 -125 111 -200 124 -16 2 -30 5 -30 6 0 1 -21 3 -47 5 -26 2
-53 7 -59 11 -6 3 -15 0 -20 -7 -6 -10 -9 -7 -9 11 0 14 -4 31 -9 39 -17 26
50 91 93 91 59 -1 198 -42 256 -77 35 -20 50 -11 27 15 -10 10 -14 22 -10 27
5 4 0 5 -9 2 -11 -4 -17 -2 -15 6 1 7 -23 24 -53 40 -51 25 -78 58 -80 94 0 7
30 42 68 78 50 50 72 65 88 61 15 -4 32 6 62 37 24 24 39 47 35 52 -5 5 1 3
11 -5 18 -14 18 -13 11 9 -5 17 -4 21 5 16 6 -4 19 0 28 9 86 81 119 101 277
171 108 48 283 71 349 45 67 -25 116 -92 122 -168 3 -31 7 -62 9 -69 2 -6 0
-13 -5 -15 -5 -2 -4 -25 1 -53 11 -60 3 -123 -20 -149 -12 -13 -15 -34 -13
-82 2 -59 -10 -87 -21 -46 -3 11 -5 7 -6 -10 -1 -20 4 -27 21 -30 35 -5 35
-35 1 -32 -15 0 -68 -5 -118 -13 -49 -7 -103 -15 -120 -17 -48 -5 -150 -67
-158 -95 -3 -12 -18 -20 -47 -25 -75 -12 -87 -34 -161 -306 -14 -52 -19 -91
-15 -127 4 -29 0 -85 -9 -130 -8 -43 -15 -79 -15 -80 0 -2 8 -3 18 -3 15 0 15
-2 2 -10 -11 -8 -9 -9 10 -5 22 5 34 -3 78 -49 54 -57 64 -82 36 -93 -26 -10
-69 10 -69 32 0 13 -17 31 -46 51 -25 16 -44 35 -42 41 2 6 -1 14 -7 18 -7 4
-14 -2 -17 -14 -3 -12 -9 -21 -13 -21 -13 0 -40 -30 -40 -44 0 -6 15 -16 32
-21 30 -9 33 -14 35 -55 2 -25 13 -78 25 -118 21 -69 21 -75 5 -83 -9 -6 -17
-17 -17 -25 0 -8 -5 -12 -10 -9 -7 4 -9 -2 -5 -17 4 -16 1 -29 -9 -37 -14 -12
-16 -10 -16 13 0 16 -5 26 -15 26 -8 0 -15 -9 -15 -20 0 -19 -15 -26 -50 -21
-56 6 -204 32 -211 37 -5 3 -9 1 -9 -5 0 -14 114 -53 195 -65 45 -7 115 -35
115 -46 0 -4 -13 -10 -29 -13 -23 -5 -30 -12 -33 -34 -2 -20 -8 -27 -20 -25
-36 6 -17 -18 23 -30 28 -8 45 -20 52 -37 7 -14 17 -32 24 -39 7 -7 20 -26 30
-42 9 -17 23 -30 30 -30 7 0 13 -6 13 -13 0 -7 9 -20 20 -30 12 -10 17 -23 14
-34 -8 -23 -38 -87 -44 -93 -3 -3 -13 -21 -22 -41 -18 -40 -10 -59 24 -59 10
0 18 -4 18 -10 0 -5 -9 -10 -20 -10 -18 0 -30 -19 -12 -21 98 -7 167 -19 176
-32 6 -8 30 -18 53 -21 35 -6 42 -5 46 11 3 10 5 3 6 -15 1 -25 -4 -35 -21
-41 -16 -6 -18 -10 -8 -16 9 -5 15 -4 18 3 5 15 52 16 52 2 0 -6 -7 -13 -15
-16 -8 -4 -15 -12 -15 -20 0 -8 -7 -14 -16 -14 -8 0 -12 -5 -9 -10 4 -6 -10
-10 -34 -10 -30 0 -41 -4 -41 -15 0 -8 -4 -15 -9 -15 -26 0 -31 -189 -6 -227
19 -28 51 -30 65 -3 6 11 17 20 25 20 8 0 15 5 15 11 0 7 9 9 24 5 18 -4 33 2
62 29 46 41 81 46 90 11 3 -14 12 -23 22 -22 12 1 16 -6 14 -22 -2 -13 3 -25
11 -28 17 -6 33 -44 40 -94 4 -23 20 -51 51 -83 25 -27 47 -62 51 -80 9 -46
26 -87 36 -87 22 0 3 -62 -28 -92 -39 -38 -43 -57 -8 -34 14 9 30 14 35 11 6
-3 10 -2 10 4 0 6 7 8 15 5 8 -4 12 -11 9 -16 -4 -5 3 -23 15 -39 11 -15 21
-32 21 -36 0 -12 86 -36 99 -29 5 3 12 0 14 -6 3 -7 6 -3 6 10 1 13 5 20 11
17 6 -4 8 -10 6 -14 -3 -4 4 -50 14 -102 19 -92 31 -187 69 -559 11 -102 22
-207 25 -235 3 -27 12 -104 20 -170 18 -141 20 -176 7 -156 -7 11 -34 -8 -118
-86 -59 -56 -133 -123 -164 -149 -324 -279 -549 -493 -719 -684 -52 -58 -107
-120 -124 -137 l-30 -33 1332 0 1332 0 0 3605 0 3605 -2650 0 -2650 0 0 -1295z
m2196 -96 c1 -19 -2 -26 -7 -18 -6 10 -11 10 -25 -2 -16 -12 -17 -12 -9 1 7
13 36 50 39 50 1 0 1 -14 2 -31z m-78 -128 c-63 -60 -91 -82 -96 -76 -10 10
22 55 39 55 10 0 21 5 25 12 5 7 3 8 -7 3 -11 -7 -11 -5 1 10 41 51 73 72 78
50 2 -7 -16 -31 -40 -54z m-14 -182 c-9 -11 -20 -16 -23 -13 -3 3 2 11 11 18
10 7 14 17 10 21 -4 5 -1 5 6 1 11 -6 10 -12 -4 -27z m1293 -444 c59 -7 113
-33 113 -55 0 -5 -15 -17 -32 -26 -18 -9 -36 -22 -40 -28 -6 -8 -8 -8 -8 0 0
13 -47 7 -56 -7 -3 -5 -31 -6 -63 -2 -52 5 -60 3 -64 -13 -4 -16 -5 -16 -6 3
-1 20 -6 22 -45 21 -24 0 -49 2 -54 6 -18 11 -6 60 20 79 26 20 108 37 148 31
14 -1 53 -6 87 -9z m-1109 -51 c-4 -3 -2 -19 2 -35 11 -38 -7 -49 -20 -13 -12
31 -7 54 11 54 7 0 10 -3 7 -6z m162 -54 c0 -4 -6 -10 -14 -13 -10 -4 -12 0
-9 14 5 18 23 18 23 -1z m793 -164 l5 -48 -28 6 c-44 8 -44 -22 -1 -61 19 -18
40 -33 47 -33 7 0 16 -5 20 -12 5 -7 3 -8 -6 -3 -8 5 -11 4 -7 -2 4 -6 22 -14
41 -17 19 -4 39 -13 46 -21 7 -8 19 -15 27 -15 16 0 20 -3 84 -59 25 -23 49
-38 52 -34 4 3 7 2 7 -4 0 -6 -7 -13 -15 -16 -10 -5 -14 -21 -13 -63 1 -43 -3
-60 -15 -69 -9 -7 -17 -17 -17 -23 0 -6 -6 -15 -12 -19 -7 -4 -13 -18 -14 -30
-3 -117 -4 -123 -19 -123 -8 0 -15 5 -15 10 0 6 -4 10 -9 10 -6 0 -3 -12 5
-27 19 -37 18 -92 -3 -115 -15 -17 -15 -18 1 -18 9 0 15 -4 11 -10 -3 -5 -13
-6 -23 -3 -14 6 -15 4 -6 -8 20 -24 3 -109 -22 -109 -8 0 -17 -7 -20 -15 -4
-8 -14 -15 -24 -15 -10 0 -21 -7 -24 -16 -4 -9 -9 -14 -12 -11 -8 8 -84 -78
-84 -96 0 -9 -4 -18 -9 -22 -5 -3 -13 -20 -17 -37 -7 -35 -31 -77 -52 -93 -7
-6 -14 -20 -15 -33 -2 -32 -63 -32 -77 1 -6 12 -14 29 -18 37 -26 45 -29 57
-21 72 6 11 5 19 -1 23 -13 8 -13 74 1 114 9 26 8 35 -6 50 -11 13 -13 21 -5
26 6 4 15 18 20 31 5 13 16 24 24 24 28 0 33 121 6 155 -4 6 -10 34 -14 63 -6
50 2 98 25 144 5 9 12 36 15 60 4 24 17 55 29 70 18 21 21 35 18 75 -5 43 -2
51 23 76 20 20 28 39 29 65 1 20 7 47 13 59 10 18 9 24 -5 32 -16 10 -16 12
-3 23 16 13 16 53 0 43 -4 -3 -11 3 -14 12 -4 10 -4 14 0 11 4 -4 15 3 26 17
16 21 60 38 65 25 1 -3 3 -27 6 -54z m46 17 c-1 -17 -3 -21 -6 -10 -2 9 -10
17 -16 17 -7 0 -6 4 3 10 20 13 20 13 19 -17z m-159 -13 c0 -5 -2 -10 -4 -10
-3 0 -8 5 -11 10 -3 6 -1 10 4 10 6 0 11 -4 11 -10z m-3046 -655 c3 -8 1 -15
-4 -15 -6 0 -10 7 -10 15 0 8 2 15 4 15 2 0 6 -7 10 -15z m4 -75 c2 -10 -7
-16 -28 -17 -32 -2 -38 5 -18 25 16 16 42 11 46 -8z m1300 -275 c-26 -23 -40
-53 -18 -40 15 9 12 -1 -5 -15 -13 -10 -15 -9 -15 12 0 29 29 68 50 68 10 -1
6 -9 -12 -25z m-1341 -67 c-3 -8 -6 -5 -6 6 -1 11 2 17 5 13 3 -3 4 -12 1 -19z
m0 -43 c0 -8 -4 -15 -9 -15 -4 0 -8 7 -8 15 0 8 4 15 8 15 5 0 9 -7 9 -15z
m33 -45 c0 -5 -4 -10 -10 -10 -5 0 -10 5 -10 10 0 6 5 10 10 10 6 0 10 -4 10
-10z m1271 -50 c17 0 28 -4 25 -9 -3 -5 -14 -7 -25 -4 -10 2 -41 -7 -69 -21
-59 -30 -69 -32 -52 -11 7 8 19 15 26 15 8 0 19 9 26 20 7 11 19 18 26 15 8
-3 27 -5 43 -5z m-1271 -67 c-1 -34 -21 -63 -44 -63 -22 0 -20 13 5 28 12 8
18 19 15 29 -7 17 0 33 15 33 5 0 9 -12 9 -27z m3160 -28 c0 -8 -9 -15 -20
-15 -11 0 -20 7 -20 15 0 8 9 15 20 15 11 0 20 -7 20 -15z m-3126 -10 c-4 -8
-1 -22 6 -30 9 -10 9 -15 1 -15 -6 0 -11 -12 -11 -27 0 -19 -3 -24 -11 -16
-12 12 -2 103 12 103 5 0 6 -7 3 -15z m1201 -5 c-3 -5 -11 -10 -16 -10 -6 0
-7 5 -4 10 3 6 11 10 16 10 6 0 7 -4 4 -10z m-1243 -76 c-6 -35 -19 -29 -24
10 -3 29 -1 32 13 23 10 -6 14 -19 11 -33z m3088 -4 c5 0 11 6 13 13 3 6 6 0
6 -15 1 -22 -4 -28 -19 -28 -16 0 -20 6 -19 33 1 17 3 24 6 15 2 -10 8 -18 13
-18z m-72 -62 c-5 -16 -48 -24 -48 -9 0 8 17 16 43 20 5 0 7 -5 5 -11z m-1748
-42 c0 -3 -4 -8 -10 -11 -5 -3 -10 -1 -10 4 0 6 5 11 10 11 6 0 10 -2 10 -4z
m1670 -16 c0 -5 -7 -10 -16 -10 -8 0 -12 5 -9 10 3 6 10 10 16 10 5 0 9 -4 9
-10z m-2879 -57 c-12 -20 -14 -14 -5 12 4 9 9 14 11 11 3 -2 0 -13 -6 -23z
m13 -78 c4 -11 -2 -15 -21 -15 -21 0 -24 2 -13 15 7 8 16 15 20 15 4 0 10 -7
14 -15z m-34 -50 c0 -8 -4 -15 -10 -15 -5 0 -10 7 -10 15 0 8 5 15 10 15 6 0
10 -7 10 -15z m47 -2 c0 -10 -7 -23 -16 -30 -9 -7 -11 -13 -6 -13 9 0 -42 -30
-51 -30 -2 0 -4 5 -4 11 0 13 25 39 39 39 5 0 13 9 16 20 8 25 22 26 22 3z
m1296 -378 c-3 -9 3 -25 13 -36 18 -20 18 -21 -8 -8 -31 14 -44 39 -26 51 20
12 28 10 21 -7z m-58 -45 c10 -11 14 -20 9 -20 -5 0 -15 9 -22 20 -7 11 -11
20 -9 20 2 0 12 -9 22 -20z m-1233 -196 c27 -8 29 -33 8 -80 -19 -41 -49 -60
-51 -31 0 10 -2 10 -6 0 -9 -24 -19 -13 -19 20 0 17 5 35 10 39 6 4 3 10 -7
14 -9 3 -17 14 -17 24 0 14 8 19 33 18 17 0 39 -2 49 -4z m-31 -177 c-15 -15
-21 -5 -14 22 5 21 7 21 16 6 6 -11 5 -21 -2 -28z m1549 12 c0 -5 -9 -9 -20
-9 -11 0 -20 6 -20 14 0 9 7 12 20 9 11 -3 20 -9 20 -14z m-283 -534 c45 -19
159 -19 195 -1 15 8 30 11 33 6 7 -11 -88 -40 -131 -40 -35 0 -123 26 -138 41
-14 13 0 11 41 -6z m-180 -617 c-3 -8 -6 -5 -6 6 -1 11 2 17 5 13 3 -3 4 -12
1 -19z m2700 -850 c-3 -8 -6 -5 -6 6 -1 11 2 17 5 13 3 -3 4 -12 1 -19z"/>
<path d="M2414 4395 c-18 -13 -15 -14 30 -15 42 0 47 2 36 15 -16 19 -41 19
-66 0z"/>
<path d="M2127 4034 c-12 -12 53 -35 70 -25 9 4 12 11 7 13 -18 11 -70 18 -77
12z"/>
<path d="M2868 3283 c6 -2 18 -2 25 0 6 3 1 5 -13 5 -14 0 -19 -2 -12 -5z"/>
<path d="M63 2643 c-18 -7 -16 -33 2 -33 8 0 15 9 15 20 0 11 -1 20 -2 19 -2
0 -9 -3 -15 -6z"/>
<path d="M656 1795 c-13 -13 -15 -28 -10 -73 4 -31 10 -61 15 -66 5 -6 9 -24
9 -40 0 -17 9 -49 20 -71 15 -29 19 -33 16 -15 -2 14 -7 33 -11 43 -4 9 -3 17
2 17 5 0 20 -36 33 -81 25 -86 30 -92 54 -83 23 9 35 65 26 115 -11 56 -91
228 -117 252 -19 17 -22 17 -37 2z"/>
<path d="M331 1706 c-6 -8 -25 -19 -41 -26 -31 -13 -40 -30 -16 -30 23 0 29
-19 12 -36 -15 -15 -18 -22 -20 -54 -1 -8 -24 -27 -51 -42 l-50 -28 65 0 c80
0 94 -9 97 -56 3 -59 7 -63 47 -54 30 6 40 4 62 -15 15 -13 33 -36 39 -52 l12
-28 7 43 c4 23 12 42 17 42 6 0 26 -17 44 -37 31 -34 35 -36 35 -16 0 37 18
73 34 67 8 -3 24 -26 35 -52 l21 -47 -5 40 c-3 22 -5 63 -5 91 0 47 -3 53 -34
75 -19 13 -45 39 -58 59 -61 91 -84 119 -101 120 -10 0 -40 11 -67 25 -57 29
-64 30 -79 11z"/>
<path d="M1140 1515 c0 -11 5 -27 10 -35 8 -12 10 -12 10 5 0 11 -5 27 -10 35
-8 12 -10 12 -10 -5z"/>
<path d="M1747 1183 c-10 -9 -8 -43 2 -43 5 0 14 6 20 14 8 10 8 16 -2 25 -8
6 -17 8 -20 4z"/>
<path d="M0 1004 c0 -127 2 -145 15 -134 18 15 35 5 35 -21 0 -10 5 -19 10
-19 18 0 11 -16 -13 -29 -18 -10 -22 -19 -19 -42 l4 -29 17 23 c28 35 32 58
21 93 -9 28 -9 37 4 49 29 30 30 56 2 82 -14 13 -27 32 -27 41 -1 9 -2 26 -3
37 -4 48 -19 95 -32 95 -11 0 -14 -28 -14 -146z m28 31 c-3 -3 -9 2 -12 12 -6
14 -5 15 5 6 7 -7 10 -15 7 -18z m52 -99 c-17 -22 -32 -9 -18 14 8 12 16 16
22 10 6 -6 4 -15 -4 -24z"/>
<path d="M1110 1071 c0 -5 5 -13 10 -16 6 -3 10 -2 10 4 0 5 -4 13 -10 16 -5
3 -10 2 -10 -4z"/>
<path d="M757 984 c-2 -3 0 -25 5 -50 7 -33 7 -49 -3 -60 -13 -16 -14 -16 21
-31 23 -11 22 -12 -19 -12 l-44 -1 8 -47 c4 -27 7 -60 7 -75 1 -34 5 -34 42
-4 18 15 24 26 17 30 -18 12 -14 76 5 76 13 0 15 7 10 38 -4 20 -9 55 -13 76
-5 38 -25 71 -36 60z"/>
<path d="M70 750 c0 -11 4 -20 9 -20 11 0 22 26 14 34 -12 12 -23 5 -23 -14z"/>
<path d="M0 683 c1 -52 3 -64 11 -50 6 9 14 15 20 12 5 -4 9 -1 9 6 0 7 7 20
15 29 13 14 10 19 -20 43 l-35 28 0 -68z"/>
<path d="M120 721 c0 -8 -8 -20 -17 -27 -16 -12 -16 -13 -2 -14 25 0 45 28 31
42 -9 9 -12 9 -12 -1z"/>
<path d="M110 581 c0 -12 -39 -21 -46 -10 -11 18 -24 -2 -24 -37 0 -27 -4 -34
-20 -34 -19 0 -20 -7 -20 -250 l0 -250 71 1 70 2 -7 31 c-8 33 -8 35 -1 110 5
46 11 391 8 429 -1 17 -31 25 -31 8z m-80 -346 c0 -8 -4 -15 -10 -15 -5 0 -10
7 -10 15 0 8 5 15 10 15 6 0 10 -7 10 -15z m45 -135 c1 -10 -2 -17 -7 -14 -4
3 -8 15 -8 26 0 26 13 15 15 -12z m-5 -45 c0 -8 -4 -15 -10 -15 -5 0 -10 7
-10 15 0 8 5 15 10 15 6 0 10 -7 10 -15z"/>
<path d="M760 426 c0 -9 5 -16 10 -16 6 0 10 4 10 9 0 6 -4 13 -10 16 -5 3
-10 -1 -10 -9z"/>
</g>
</svg>
